<svg width="221" height="220" viewBox="0 0 221 220" fill="none" xmlns="http://www.w3.org/2000/svg">
<line x1="59.2887" y1="92.5449" x2="11.2887" y2="22.5449" stroke="#83B327" stroke-width="9"/>
<line y1="-4.5" x2="84.8764" y2="-4.5" transform="matrix(0.565528 -0.824729 -0.824729 -0.565528 46 74)" stroke="#A9C376" stroke-width="9"/>
<path d="M112.482 136.703C108.49 133.126 108.49 126.874 112.482 123.297L176.995 65.5009C182.791 60.308 192 64.422 192 72.2042L192 187.796C192 195.578 182.791 199.692 176.995 194.499L112.482 136.703Z" fill="#83B327"/>
<rect x="15" y="74" width="125" height="112" rx="13" fill="#A9C376"/>
<circle cx="90" cy="15" r="15" fill="#83B327"/>
<circle cx="15" cy="24" r="15" fill="#A9C376"/>
<rect x="28" y="93" width="100" height="73" rx="9" fill="#83B327"/>
<circle cx="33" cy="177" r="2" fill="#83B327"/>
<circle cx="40" cy="177" r="2" fill="#83B327"/>
<circle cx="47" cy="177" r="2" fill="#83B327"/>
<circle cx="54" cy="177" r="2" fill="#83B327"/>
<line x1="97.5" y1="177.5" x2="124.5" y2="177.5" stroke="#83B327" stroke-width="3" stroke-linecap="round"/>
</svg>
